# xmcd
#
# Track frame offsets:
#	182
#	68432
#	86177
#	101530
#	115900
#	132200
#	149487
#	164132
#	189122
#
# Disc length: 2742 seconds
#
# Revision: 6
# Processed by: cddbd v1.5.2PL0 Copyright (c) Steve Scherf et al.
# Submitted via: audiograbber 1.83.01
#
DISCID=7b0ab409
DTITLE=Various Artist - Der erste Sahne Mix - Das Album
DYEAR=1997
DGENRE=Blues
TTITLE0=Udo Jürgens - Der "Erste Sahne" - Mix
TTITLE1=Udo Jürgens - Der "Lieben, Leiden, Leben" - Mix
TTITLE2=Udo Jürgens - Der "Zeit"- Mix
TTITLE3=Udo Jürgens - Der "Ferien" - Mix
TTITLE4=Udo Jürgens - Der "Ich bin..." - Mix
TTITLE5=Udo Jürgens - Der "Himmel und Hölle" - Mix
TTITLE6=Udo Jürgens - Der "Schmunzel" - Mix
TTITLE7=Udo Jürgens - Der "Swing" - Mix
TTITLE8=Udo Jürgens - Der "Erste Sahne" - Mix
EXTD=
EXTT0=
EXTT1=
EXTT2=
EXTT3=
EXTT4=
EXTT5=
EXTT6=
EXTT7=
EXTT8=
PLAYORDER=
